<svg xmlns="http://www.w3.org/2000/svg" viewBox="0 0 604 200">
	<defs>
		<style>
			.bg {
				opacity: 0.1;
			}
			.overlay {
				fill: red;
				opacity: 0.15;
			}
			text {
				font-size: 24px;
				font-family: monospace;
				text-anchor: middle;
			}
			polyline {
				fill: none;
				stroke: #000;
				stroke-width: 4px;
			}
		</style>
	</defs>
	<title>ColumnSetter Diagram</title>
	<rect class="bg" x="2" width="600" height="140"/>
	<rect class="overlay" x="82" width="80" height="140"/>
	<rect class="overlay" x="202" width="80" height="140"/>
	<rect class="overlay" x="322" width="80" height="140"/>
	<rect class="overlay" x="442" width="80" height="140"/>
	<rect class="overlay" x="82" width="20" height="140"/>
	<rect class="overlay" x="142" width="20" height="140"/>
	<rect class="overlay" x="202" width="20" height="140"/>
	<rect class="overlay" x="262" width="20" height="140"/>
	<rect class="overlay" x="322" width="20" height="140"/>
	<rect class="overlay" x="382" width="20" height="140"/>
	<rect class="overlay" x="442" width="20" height="140"/>
	<rect class="overlay" x="502" width="20" height="140"/>
	<text x="92" y="176">$pad</text>
	<polyline points="102 120 102 140 82 140 82 120"/>
	<text x="182" y="176">$gut</text>
	<polyline points="202 120 202 140 162 140 162 120"/>
	<text x="362" y="176">$col</text>
	<polyline points="402 120 402 140 322 140 322 120"/>
	<text x="562" y="176">$mar</text>
	<polyline points="602 120 602 140 522 140 522 120"/>
</svg>